# Blender v2.93.0 OBJ File: 'корабль_меню .blend'
# www.blender.org
mtllib корабль_меню.mtl
o Плоскость.001
v 6.910458 -0.508038 -2.300540
v -7.019405 -0.508037 -2.300536
v 6.910460 -0.508038 2.199459
v -7.019403 -0.508037 2.199464
v 6.910460 2.491962 2.199459
v -7.019403 2.491963 2.199464
v 6.910458 2.491962 -2.300540
v -7.019405 2.491963 -2.300536
v -7.019404 -1.094749 1.152460
v -7.019405 -1.094749 -1.134367
v 6.910458 -0.508038 -1.134372
v 6.910459 -0.508038 1.152455
v -7.019404 -0.508037 1.152460
v -7.019405 -0.508037 -1.134367
v 6.910459 -1.094749 1.152455
v 6.910458 -1.094749 -1.134372
v 2.242622 -0.508038 -2.300539
v 2.242623 -1.094749 1.152457
v 2.242624 -0.508038 2.199461
v 0.443541 2.491962 2.199462
v 0.443541 2.491962 -2.300538
v 2.242622 -1.094749 -1.134370
v 2.242623 -0.508038 1.152457
v 2.242622 -0.508038 -1.134370
v 6.910460 0.877676 2.199459
v -7.019403 0.877677 2.199464
v 0.443541 0.877677 2.199461
v -7.019403 -0.508037 2.411501
v 2.242624 -0.508038 2.411498
v -7.019403 0.877677 2.411501
v 0.443541 0.877677 2.411499
v -3.170738 -0.508038 -2.300539
v -3.146692 -0.508038 -2.300539
v -3.146692 -1.094749 -1.134369
v -3.170738 -1.094749 -1.134369
v -3.146692 -0.508038 -1.134369
v -3.170738 -0.508038 -1.134369
v -3.170737 -1.094749 1.152458
v -3.146692 -1.094749 1.152458
v -3.146692 -0.508038 2.199462
v -3.170738 -0.508038 2.199462
v -3.146692 2.491962 2.199463
v -3.170738 2.491962 2.199463
v -3.146692 2.491962 -2.300537
v -3.170738 2.491962 -2.300537
v -3.170737 -0.508038 1.152458
v -3.146692 -0.508038 1.152458
v -3.170738 0.877677 2.199462
v -3.146692 0.877677 2.199462
v -3.170738 -0.508038 2.411500
v -3.146692 -0.508038 2.411500
v -3.170738 0.877677 2.411500
v -3.146692 0.877677 2.411500
v -3.146692 -0.520584 2.199462
v -3.170738 -0.520584 2.199462
v -3.170738 0.887135 2.199462
v -3.146692 0.887135 2.199462
v -3.170737 -0.520584 1.152458
v -3.146692 -0.520584 1.152458
v -3.146692 -0.520584 -1.134369
v -3.170738 -0.520584 -1.134369
v -3.146692 -0.520584 -2.300539
v -3.170738 -0.520584 -2.300539
v -3.146692 -0.520584 1.164501
v -3.170737 -0.520584 1.164501
v -3.146692 -0.508038 2.421844
v -3.170738 -0.508038 2.421844
v -3.146692 -0.520584 -1.144143
v -3.170738 -0.520584 -1.144143
v -3.146692 -1.105376 -1.134369
v -3.146692 -1.105376 1.152458
v -3.170738 -1.105376 -1.134369
v -3.170737 -1.105376 1.152458
v -3.146692 -1.105376 1.164501
v -3.170738 -1.105376 -1.144143
v -3.146692 -1.105376 -1.144143
v -3.170737 -1.105376 1.164501
v -3.170738 -0.520584 2.421844
v -3.146692 -0.520584 2.421844
v -3.146692 0.887135 2.411500
v -3.170738 0.887135 2.411500
v -3.146692 0.887135 2.421845
v -3.170738 0.887135 2.421845
v -3.170738 0.887135 2.210160
v -3.146692 0.887135 2.210160
v -3.170738 2.505285 -2.300537
v -3.170738 2.505285 2.199463
v -3.146692 2.505285 -2.300537
v -3.146692 2.505285 2.199463
v -3.170738 2.505285 2.210160
v -3.146692 2.505285 2.210160
v 2.707604 -1.106931 1.169384
v 2.707604 -0.530514 -2.300539
v 2.707603 -0.530514 -1.156119
v 2.707603 -0.508038 -1.156119
v 2.678500 -0.508038 -1.156119
v 2.678500 -0.530514 -1.156119
v 2.678500 -0.530514 -2.300539
v 2.678500 -0.508038 1.169384
v 2.707604 -0.508038 1.169384
v 2.707604 -1.094749 1.152456
v 2.678500 -1.094749 1.152456
v 2.707604 -0.508038 2.199461
v 2.678500 -0.508038 2.199461
v 2.678500 2.491962 2.199461
v 2.707604 2.491962 2.199461
v 2.707604 2.491962 -2.300539
v 2.678500 2.491962 -2.300539
v 2.707604 -0.508038 1.152456
v 2.678500 -0.508038 1.152456
v 2.678500 -0.508038 -2.300539
v 2.707604 -0.508038 -2.300539
v 2.678500 -1.094749 -1.134371
v 2.707603 -1.094749 -1.134371
v 2.678500 -0.508038 -1.134371
v 2.707603 -0.508038 -1.134371
v 2.678500 0.877677 2.199461
v 2.707604 0.877677 2.199461
v 2.707604 -1.106931 1.152456
v 2.678500 -1.106931 -1.156119
v 2.678500 -1.106931 -1.134371
v 2.678500 -1.106931 1.169384
v 2.678500 -1.106931 1.152456
v 2.707603 -1.106931 -1.156119
v 2.707603 -1.106931 -1.134371
v 2.678500 -0.527525 1.169384
v 2.707604 -0.527525 1.169384
v 2.707604 2.509749 -2.300539
v 2.678500 2.509749 -2.300539
v 2.707604 2.509749 2.199461
v 2.678500 2.509749 2.221467
v 2.707604 2.509749 2.221467
v 2.678500 2.509749 2.199461
v 2.678500 0.877677 2.221467
v 2.707604 0.877677 2.221467
v 2.707604 -0.508038 2.221467
v 2.678500 -0.508038 2.221467
v 2.707604 -0.527525 2.221467
v 2.678500 -0.527525 2.221467
vt 0.335096 0.600000
vt 0.270450 0.600000
vt 0.270450 0.600000
vt 0.335096 0.600000
vt 0.565097 1.000000
vt 0.464249 1.000000
vt 0.464249 1.000000
vt 0.565097 1.000000
vt 0.464249 1.000000
vt 0.565097 1.000000
vt 0.565097 1.000000
vt 0.464249 1.000000
vt 0.565097 1.000000
vt 0.335096 0.000000
vt 0.462586 0.000000
vt 0.462586 0.400000
vt 0.335096 0.400000
vt 0.462586 0.600000
vt 0.462586 0.600000
vt 0.462586 0.600000
vt 0.270450 0.400000
vt 0.335096 0.400000
vt 1.000000 0.600000
vt 0.464181 0.600000
vt 0.464181 0.600000
vt 0.464181 0.600000
vt 1.000000 0.600000
vt 0.000000 0.400000
vt 0.267366 0.400000
vt 0.267366 0.400000
vt 0.000000 0.400000
vt 0.000000 0.000000
vt 0.267366 0.000000
vt 0.267366 0.392540
vt 0.000000 1.000000
vt 0.370414 1.000000
vt 0.370414 1.000000
vt 0.000000 1.000000
vt 0.372296 1.000000
vt 0.372296 1.000000
vt 0.270450 0.000000
vt 0.270450 0.400000
vt 0.270450 0.392540
vt 0.464181 0.400000
vt 1.000000 0.400000
vt 1.000000 0.400000
vt 0.464181 0.400000
vt 0.464181 0.400000
vt 0.000000 1.000000
vt 0.267366 1.000000
vt 0.370414 1.000000
vt 0.000000 1.000000
vt 1.000000 1.000000
vt 0.568260 1.000000
vt 0.568260 1.000000
vt 1.000000 1.000000
vt 0.335096 1.000000
vt 0.335096 1.000000
vt 0.462586 1.000000
vt 0.462586 1.000000
vt 0.000000 0.000000
vt 0.000000 0.000000
vt 0.000000 0.000000
vt 0.000000 0.000000
vt 1.000000 1.000000
vt 0.464181 1.000000
vt 0.464181 1.000000
vt 1.000000 1.000000
vt 0.462586 0.400000
vt 0.462586 0.400000
vt 1.000000 1.000000
vt 0.568260 1.000000
vt 0.568260 1.000000
vt 1.000000 1.000000
vt 0.568260 1.000000
vt 0.000000 0.000000
vt 0.000000 0.000000
vt 0.000000 0.000000
vt 0.000000 0.000000
vt 0.462586 1.000000
vt 0.565097 1.000000
vt 0.565097 1.000000
vt 0.568260 1.000000
vt 0.568260 1.000000
vt 0.464181 0.600000
vt 0.464181 0.400000
vt 0.464181 0.604601
vt 0.464181 1.000000
vt 0.462586 1.000000
vt 0.462586 0.600000
vt 0.462586 0.400000
vt 0.462586 0.400000
vt 0.462586 0.400000
vt 0.462586 1.000000
vt 0.000000 0.000000
vt 0.000000 0.000000
vt 0.000000 0.000000
vt 0.000000 0.000000
vt 0.565097 1.000000
vt 0.565097 1.000000
vt 0.565097 1.000000
vt 0.464181 0.000000
vt 1.000000 0.000000
vt 0.464181 1.000000
vt 0.462586 0.600000
vt 0.464181 0.400000
vt 0.464181 0.400000
vt 0.462586 0.604601
vt 0.464181 0.396648
vt 0.464181 0.000000
vt 0.464181 1.000000
vt 0.462586 0.000000
vt 0.462586 0.396648
vt 0.464181 0.600000
vt 0.464181 0.600000
vt 0.462586 0.600000
vt 0.568260 1.000000
vt 0.565097 1.000000
vt 0.568260 1.000000
vt 0.568260 1.000000
vt 0.568260 1.000000
vt 0.270450 1.000000
vt 0.270450 0.606467
vt 0.372296 1.000000
vt 0.372296 1.000000
vt 0.372296 1.000000
vt 0.000000 0.600000
vt 0.267366 0.600000
vt 0.267366 0.606467
vt 0.267366 0.600000
vt 0.000000 0.600000
vt 0.267366 1.000000
vt 0.370414 1.000000
vt 0.372296 1.000000
vt 0.372296 1.000000
vt 0.370414 1.000000
vt 0.370414 1.000000
vt 0.270450 0.400000
vt 0.270450 0.400000
vt 0.270450 0.400000
vt 0.270450 0.400000
vt 0.267366 0.400000
vt 0.267366 0.600000
vt 0.267366 0.400000
vt 0.267366 0.400000
vt 0.267366 0.400000
vt 0.270450 0.600000
vt 0.270450 0.600000
vt 0.270450 0.600000
vt 0.270450 0.600000
vt 0.267366 0.600000
vt 0.267366 0.600000
vt 0.267366 0.600000
vt 0.270450 1.000000
vt 0.270450 1.000000
vt 0.270450 0.606467
vt 0.267366 0.606467
vt 0.267366 1.000000
vt 0.000000 0.000000
vt 0.000000 0.000000
vt 0.000000 0.000000
vt 0.000000 0.000000
vt 0.270450 0.000000
vt 0.267366 0.392540
vt 0.267366 0.000000
vt 0.270450 0.392540
vt 0.370414 1.000000
vt 0.000000 0.000000
vt 0.000000 0.000000
vt 0.000000 0.000000
vt 0.000000 0.000000
vn -0.0000 0.0000 -1.0000
vn -0.0000 -1.0000 0.0000
vn 0.0000 1.0000 -0.0000
vn 0.0000 0.0000 1.0000
vn -0.6102 -0.7922 0.0000
vn 1.0000 0.0000 0.0000
vn -1.0000 0.0000 0.0000
usemtl Материал
s off
f 23/1/1 110/2/1 102/3/1 18/4/1
f 49/5/2 27/6/2 31/7/2 53/8/2
f 20/9/2 42/10/2 44/11/2 21/12/2
f 27/6/1 49/5/1 57/13/1 42/10/1 20/9/1
f 17/14/3 33/15/3 36/16/3 24/17/3
f 47/18/1 23/1/1 18/4/1 39/19/1 59/20/1
f 18/4/3 102/3/3 113/21/3 22/22/3
f 13/23/1 46/24/1 58/25/1 38/26/1 9/27/1
f 11/28/4 116/29/4 114/30/4 16/31/4
f 1/32/3 112/33/3 95/34/3 116/29/3 11/28/3
f 5/35/2 106/36/2 107/37/2 7/38/2
f 117/39/1 27/6/1 20/9/1 105/40/1
f 111/41/3 17/14/3 24/17/3 115/42/3 96/43/3
f 37/44/4 14/45/4 10/46/4 35/47/4 61/48/4
f 3/49/1 103/50/1 118/51/1 25/52/1
f 26/53/2 48/54/2 52/55/2 30/56/2
f 27/6/5 19/57/5 29/58/5 31/7/5
f 19/57/3 40/59/3 51/60/3 29/58/3
f 4/61/6 26/62/6 30/63/6 28/64/6
f 46/24/3 13/23/3 4/65/3 41/66/3
f 50/67/1 28/68/1 30/56/1 52/55/1
f 29/58/1 51/60/1 53/8/1 31/7/1
f 24/17/4 36/16/4 60/69/4 34/70/4 22/22/4
f 23/1/3 47/18/3 40/59/3 19/57/3
f 39/19/3 18/4/3 22/22/3 34/70/3
f 9/27/3 38/26/3 35/47/3 10/46/3
f 41/66/3 4/65/3 28/68/3 50/67/3
f 48/54/1 26/53/1 6/71/1 43/72/1 56/73/1
f 43/72/2 6/71/2 8/74/2 45/75/2
f 33/76/4 32/77/4 63/78/4 62/79/4
f 53/8/7 51/60/7 66/80/7 82/81/7 80/82/7
f 52/55/6 48/54/6 56/73/6 84/83/6 81/84/6
f 35/47/6 38/26/6 73/85/6 72/86/6
f 65/87/3 55/88/3 54/89/3 64/90/3
f 34/70/7 60/69/7 68/91/7 76/92/7 70/93/7
f 51/60/7 40/59/7 54/89/7 79/94/7 66/80/7
f 46/24/6 41/66/6 55/88/6 65/87/6 58/25/6
f 45/95/4 44/96/4 88/97/4 86/98/4
f 42/10/7 57/13/7 85/99/7 91/100/7 89/101/7
f 32/102/3 2/103/3 14/45/3 37/44/3
f 55/88/3 78/104/3 79/94/3 54/89/3
f 39/19/7 34/70/7 70/93/7 71/105/7
f 69/106/4 75/107/4 76/92/4 68/91/4
f 40/59/7 47/18/7 59/20/7 64/108/7 54/89/7
f 32/102/6 37/44/6 61/48/6 69/109/6 63/110/6
f 41/66/6 50/67/6 67/111/6 78/104/6 55/88/6
f 36/16/7 33/15/7 62/112/7 68/113/7 60/69/7
f 38/26/6 58/25/6 65/114/6 77/115/6 73/85/6
f 59/20/7 39/19/7 71/105/7 74/116/7 64/90/7
f 64/90/1 74/116/1 77/115/1 65/114/1
f 61/48/6 35/47/6 72/86/6 75/107/6 69/106/6
f 63/110/3 69/106/3 68/113/3 62/112/3
f 71/105/3 70/93/3 76/92/3 75/107/3 72/86/3 73/85/3 77/115/3 74/116/3
f 67/111/1 83/117/1 82/81/1 66/80/1 79/94/1 78/104/1
f 50/67/6 52/55/6 81/84/6 83/117/6 67/111/6
f 44/11/7 42/10/7 89/101/7 88/118/7
f 49/5/7 53/8/7 80/82/7 85/99/7 57/13/7
f 84/83/1 90/119/1 91/100/1 85/99/1
f 56/73/6 43/72/6 87/120/6 90/119/6 84/83/6
f 87/120/2 86/121/2 88/118/2 89/101/2 91/100/2 90/119/2
f 85/99/2 80/82/2 82/81/2 83/117/2 81/84/2 84/83/2
f 43/72/6 45/75/6 86/121/6 87/120/6
f 110/2/3 23/1/3 19/57/3 104/122/3 99/123/3
f 105/40/2 20/9/2 21/12/2 108/124/2
f 25/52/1 118/51/1 106/36/1 5/35/1
f 104/122/1 19/57/1 27/6/1 117/39/1
f 115/42/4 24/17/4 22/22/4 113/21/4
f 105/40/6 108/124/6 129/125/6 133/126/6
f 12/127/3 109/128/3 100/129/3 103/50/3 3/49/3
f 101/130/3 15/131/3 16/31/3 114/30/3
f 118/51/7 103/50/7 136/132/7 135/133/7
f 117/39/6 105/40/6 133/126/6 131/134/6 134/135/6
f 107/37/7 106/36/7 130/136/7 128/137/7
f 115/42/6 113/21/6 121/138/6 120/139/6 97/140/6 96/141/6
f 101/130/7 114/30/7 125/142/7 119/143/7
f 114/30/7 116/29/7 95/144/7 94/145/7 124/146/7 125/142/7
f 102/3/6 110/2/6 99/147/6 126/148/6 122/149/6 123/150/6
f 113/21/6 102/3/6 123/150/6 121/138/6
f 109/128/1 12/127/1 15/131/1 101/130/1
f 109/128/7 101/130/7 119/143/7 92/151/7 127/152/7 100/153/7
f 99/123/6 104/122/6 137/154/6 139/155/6 126/156/6
f 103/50/7 100/129/7 127/157/7 138/158/7 136/132/7
f 112/159/4 111/160/4 98/161/4 93/162/4
f 119/143/3 125/142/3 124/146/3 120/139/3 121/138/3 123/150/3 122/149/3 92/151/3
f 98/163/3 97/140/3 94/164/3 93/165/3
f 95/34/7 112/33/7 93/165/7 94/164/7
f 111/41/6 96/43/6 97/166/6 98/163/6
f 126/156/3 139/155/3 138/158/3 127/152/3
f 97/140/4 120/139/4 124/146/4 94/145/4
f 133/126/2 129/125/2 128/137/2 130/136/2 132/167/2 131/134/2
f 127/152/1 92/151/1 122/149/1 126/148/1
f 104/122/6 117/39/6 134/135/6 137/154/6
f 106/36/7 118/51/7 135/133/7 132/167/7 130/136/7
f 134/135/1 131/134/1 132/167/1 135/133/1
f 137/154/1 134/135/1 135/133/1 136/132/1 138/158/1 139/155/1
f 108/168/4 107/169/4 128/170/4 129/171/4
